<?xml version="1.0" encoding="UTF-8"?>
<svg width="40px" height="32px" viewBox="0 0 40 32" version="1.1" xmlns="http://www.w3.org/2000/svg" xmlns:xlink="http://www.w3.org/1999/xlink">
    <!-- Generator: Sketch 51.1 (57501) - http://www.bohemiancoding.com/sketch -->
    <title>baseline-email-24px (1)</title>
    <desc>Created with Sketch.</desc>
    <defs></defs>
    <g id="Landing-page" stroke="none" stroke-width="1" fill="none" fill-rule="evenodd">
        <g id="Stage-2" transform="translate(-700.000000, -1833.000000)">
            <g id="baseline-email-24px-(1)" transform="translate(696.000000, 1825.000000)">
                <path d="M40,8 L8,8 C5.8,8 4.02,9.8 4.02,12 L4,36 C4,38.2 5.8,40 8,40 L40,40 C42.2,40 44,38.2 44,36 L44,12 C44,9.8 42.2,8 40,8 Z M40,16 L24,26 L8,16 L8,12 L24,22 L40,12 L40,16 Z" id="Shape" fill="#FFCC4D" fill-rule="nonzero"></path>
                <polygon id="Shape" points="0 0 48 0 48 48 0 48"></polygon>
            </g>
        </g>
    </g>
</svg>