<?xml version="1.0" encoding="UTF-8"?>
<svg width="18px" height="18px" viewBox="0 0 18 18" version="1.1" xmlns="http://www.w3.org/2000/svg" xmlns:xlink="http://www.w3.org/1999/xlink">
    <!-- Generator: Sketch 51.1 (57501) - http://www.bohemiancoding.com/sketch -->
    <title>Facebook Copy-black</title>
    <desc>Created with Sketch.</desc>
    <defs></defs>
    <g id="Landing-page" stroke="none" stroke-width="1" fill="none" fill-rule="evenodd">
        <g id="Stage-1" transform="translate(-1272.000000, -57.000000)" fill="#262626">
            <path d="M1272.99346,75 C1272.44463,75 1272,74.5550968 1272,74.006476 L1272,57.9934541 C1272,57.4446936 1272.4447,57 1272.99346,57 L1289.00661,57 C1289.55523,57 1290,57.4446936 1290,57.9934541 L1290,74.006476 C1290,74.5551667 1289.55516,75 1289.00661,75 L1284.41974,75 L1284.41974,68.029408 L1286.75945,68.029408 L1287.10978,65.3128446 L1284.41974,65.3128446 L1284.41974,63.5784905 C1284.41974,62.7919827 1284.63814,62.2560036 1285.76598,62.2560036 L1287.20449,62.255375 L1287.20449,59.825659 C1286.95571,59.7925531 1286.10179,59.7185889 1285.10833,59.7185889 C1283.03431,59.7185889 1281.61438,60.9845723 1281.61438,63.3094533 L1281.61438,65.3128446 L1279.26867,65.3128446 L1279.26867,68.029408 L1281.61438,68.029408 L1281.61438,75 L1272.99346,75 Z" id="Facebook-Copy"></path>
        </g>
    </g>
</svg>