<?xml version="1.0" encoding="UTF-8"?>
<svg width="18px" height="18px" viewBox="0 0 18 18" version="1.1" xmlns="http://www.w3.org/2000/svg" xmlns:xlink="http://www.w3.org/1999/xlink">
    <!-- Generator: Sketch 51.1 (57501) - http://www.bohemiancoding.com/sketch -->
    <title>Instagram Copy-black</title>
    <desc>Created with Sketch.</desc>
    <defs></defs>
    <g id="Landing-page" stroke="none" stroke-width="1" fill="none" fill-rule="evenodd">
        <g id="Stage-1" transform="translate(-1234.000000, -57.000000)" fill="#262626">
            <path d="M1243.00002,57 C1245.44425,57 1245.75074,57.0103604 1246.71069,57.0541599 C1247.66863,57.0978523 1248.32288,57.2500074 1248.89534,57.4725062 C1249.48717,57.7024716 1249.98908,58.0102116 1250.48945,58.510548 C1250.98979,59.0109201 1251.29753,59.5128285 1251.52753,60.104658 C1251.74999,60.6771243 1251.90215,61.3313664 1251.94584,62.2893115 C1251.98964,63.2492572 1252,63.5557468 1252,66.0000179 C1252,68.4442532 1251.98964,68.7507428 1251.94584,69.7106885 C1251.90215,70.6686336 1251.74999,71.3228757 1251.52753,71.895342 C1251.29753,72.4871715 1250.98979,72.9890799 1250.48945,73.489452 C1249.98908,73.9897884 1249.48717,74.2975284 1248.89534,74.5275295 C1248.32288,74.7499926 1247.66863,74.9021477 1246.71069,74.9458401 C1245.75074,74.9896396 1245.44425,75 1243.00002,75 C1240.55575,75 1240.24926,74.9896396 1239.28931,74.9458401 C1238.33137,74.9021477 1237.67712,74.7499926 1237.10466,74.5275295 C1236.51283,74.2975284 1236.01092,73.9897884 1235.51055,73.489452 C1235.01021,72.9890799 1234.70247,72.4871715 1234.47251,71.895342 C1234.25001,71.3228757 1234.09785,70.6686336 1234.05416,69.7106885 C1234.01036,68.7507428 1234,68.4442532 1234,66.0000179 C1234,63.5557468 1234.01036,63.2492572 1234.05416,62.2893115 C1234.09785,61.3313664 1234.25001,60.6771243 1234.47251,60.104658 C1234.70247,59.5128285 1235.01021,59.0109201 1235.51055,58.510548 C1236.01092,58.0102116 1236.51283,57.7024716 1237.10466,57.4725062 C1237.67712,57.2500074 1238.33137,57.0978523 1239.28931,57.0541599 C1240.24926,57.0103604 1240.55575,57 1243.00002,57 Z M1243.00002,58.6216187 C1240.5969,58.6216187 1240.31224,58.6308002 1239.36323,58.6740996 C1238.48574,58.7141122 1238.00919,58.8607299 1237.69206,58.983983 C1237.27196,59.1472488 1236.97215,59.3422746 1236.65723,59.6572312 C1236.34227,59.9721519 1236.14725,60.2719608 1235.98398,60.6920576 C1235.86073,61.0091934 1235.71411,61.4857366 1235.6741,62.3632277 C1235.6308,63.3122414 1235.62162,63.5969026 1235.62162,66.0000179 C1235.62162,68.4030974 1235.6308,68.6877586 1235.6741,69.6367723 C1235.71411,70.5142634 1235.86073,70.9908066 1235.98398,71.3079424 C1236.14725,71.7280392 1236.34231,72.0278481 1236.65723,72.3427688 C1236.97215,72.6577254 1237.27196,72.8527512 1237.69206,73.016017 C1238.00919,73.1392701 1238.48574,73.2858878 1239.36323,73.3259004 C1240.31213,73.3691998 1240.59672,73.3783813 1243.00002,73.3783813 C1245.40328,73.3783813 1245.6879,73.3691998 1246.63677,73.3259004 C1247.51426,73.2858878 1247.99081,73.1392701 1248.30794,73.016017 C1248.72804,72.8527512 1249.02785,72.6577254 1249.34277,72.3427688 C1249.65773,72.0278481 1249.85275,71.7280392 1250.01602,71.3079424 C1250.13927,70.9908066 1250.28589,70.5142634 1250.3259,69.6367723 C1250.3692,68.6877586 1250.37838,68.4030974 1250.37838,66.0000179 C1250.37838,63.5969026 1250.3692,63.3122414 1250.3259,62.3632277 C1250.28589,61.4857366 1250.13927,61.0091934 1250.01602,60.6920576 C1249.85275,60.2719608 1249.65773,59.9721519 1249.34277,59.6572312 C1249.02785,59.3422746 1248.72804,59.1472488 1248.30794,58.983983 C1247.99081,58.8607299 1247.51426,58.7141122 1246.63677,58.6740996 C1245.68776,58.6308002 1245.4031,58.6216187 1243.00002,58.6216187 Z M1243.00002,61.3783813 C1245.55247,61.3783813 1247.62162,63.447534 1247.62162,66.0000179 C1247.62162,68.552466 1245.55247,70.6216187 1243.00002,70.6216187 C1240.44753,70.6216187 1238.37838,68.552466 1238.37838,66.0000179 C1238.37838,63.447534 1240.44753,61.3783813 1243.00002,61.3783813 Z M1243.00002,69 C1244.65686,69 1246,67.656862 1246,66.0000179 C1246,64.343138 1244.65686,63 1243.00002,63 C1241.34314,63 1240,64.343138 1240,66.0000179 C1240,67.656862 1241.34314,69 1243.00002,69 Z M1248.88423,61.195788 C1248.88423,61.7922618 1248.40069,62.2757715 1247.80421,62.2757715 C1247.20777,62.2757715 1246.72423,61.7922618 1246.72423,61.195788 C1246.72423,60.5993141 1247.20777,60.1157687 1247.80421,60.1157687 C1248.40069,60.1157687 1248.88423,60.5993141 1248.88423,61.195788 Z" id="Instagram-Copy"></path>
        </g>
    </g>
</svg>