<?xml version="1.0" encoding="UTF-8"?>
<svg width="548px" height="1700px" viewBox="0 0 548 1700" version="1.1" xmlns="http://www.w3.org/2000/svg" xmlns:xlink="http://www.w3.org/1999/xlink">
    <!-- Generator: Sketch 51.1 (57501) - http://www.bohemiancoding.com/sketch -->
    <title>Path 6</title>
    <desc>Created with Sketch.</desc>
    <defs></defs>
    <g id="Landing-page" stroke="none" stroke-width="1" fill="none" fill-rule="evenodd">
        <g id="Stage-3" transform="translate(-440.000000, -1738.000000)" fill="#BBBBBB" fill-rule="nonzero">
            <g id="Group-7" transform="translate(441.000000, 1738.000000)">
                <path d="M534.489406,0.344755819 L534.743268,1.3119963 C532.485834,1.90448214 530.235558,2.49773835 527.992438,3.09176492 L527.736441,2.12508737 C529.980273,1.5308721 532.231261,0.937428253 534.489406,0.344755819 Z M520.933079,3.93498916 L521.191265,4.90108431 C518.930743,5.50520264 516.677584,6.11011353 514.431789,6.71581698 L514.171388,5.75031639 C516.417922,5.14441361 518.67182,4.53930453 520.933079,3.93498916 Z M507.458755,7.56907677 L507.721394,8.53397098 C505.46065,9.14933309 503.207466,9.76550897 500.961842,10.3824986 L500.696908,9.4182321 C502.943298,8.80103201 505.197247,8.1846469 507.458755,7.56907677 Z M493.918617,11.2894187 L494.185894,12.2530383 C491.928452,12.8791816 489.678754,13.5061586 487.436803,14.1339692 L487.167147,13.1710123 C489.409893,12.5429795 491.660382,11.9157816 493.918617,11.2894187 Z M480.442045,15.0632981 L480.714113,16.025576 C478.4629,16.6620701 476.219606,17.2994166 473.984231,17.9376152 L473.709701,16.9760368 C475.945897,16.3376035 478.190012,15.700024 480.442045,15.0632981 Z M466.975124,18.9082384 L467.252164,19.8690967 C465.010348,20.5154704 462.776611,21.1627135 460.550954,21.8108261 L460.271366,20.8507059 C462.497873,20.2023457 464.732459,19.5548566 466.975124,18.9082384 Z M453.52544,22.8250603 L453.807642,23.7844154 C451.560583,24.4454048 449.321882,25.1072937 447.091539,25.7700821 L446.806682,24.8115121 C449.037911,24.1484603 451.277497,23.4863098 453.52544,22.8250603 Z M440.100682,26.8145952 L440.388243,27.7723574 C438.140089,28.4473501 435.900557,29.1232705 433.669647,29.8001187 L433.379319,28.8431913 C435.611153,28.166063 437.851607,27.4898643 440.100682,26.8145952 Z M426.708635,30.877686 L427.001764,31.8337587 C424.756607,32.5221188 422.520319,33.2114332 420.2929,33.901702 L419.996891,32.9465166 C422.225271,32.2559501 424.462519,31.5663399 426.708635,30.877686 Z M413.357186,35.0151865 L413.656103,35.9694657 C411.417972,36.6705337 409.188939,37.3725806 406.969005,38.0756065 L406.667095,37.1222701 C408.888028,36.4189278 411.118058,35.7165666 413.357186,35.0151865 Z M399.999804,39.2454184 L400.304762,40.197784 C398.077929,40.9108417 395.860404,41.6249008 393.652187,42.3399613 L393.344118,41.3885972 C395.553373,40.6732005 397.771935,39.9588076 399.999804,39.2454184 Z M386.647315,43.569554 L386.958584,44.5198758 C384.732162,45.2491192 382.515367,45.9793982 380.308198,46.7107128 L379.993677,45.7614623 C382.201932,45.029788 384.419811,44.2991519 386.647315,43.569554 Z M373.363396,47.9711285 L373.681232,48.9192741 C371.460101,49.6638389 369.248892,50.409471 367.047605,51.1561704 L366.726373,50.20917 C368.928793,49.4620861 371.141134,48.7160722 373.363396,47.9711285 Z M360.10467,52.4688061 L360.429371,53.4146228 C358.218637,54.1735729 356.018095,54.9336192 353.827744,55.6947617 L353.499499,54.7501688 C355.691033,53.9886153 357.892757,53.2281611 360.10467,52.4688061 Z M346.882455,57.0638134 L347.214335,58.007135 C345.005501,58.7842487 342.80723,59.5624985 340.619521,60.3418843 L340.283925,59.3998783 C342.472874,58.6200506 344.672384,57.8413624 346.882455,57.0638134 Z M333.708244,61.7573972 L334.047635,62.6980423 C331.846661,63.4921698 329.656589,64.2874697 327.477419,65.0839419 L327.134136,64.1447099 C329.314605,63.3477629 331.505974,62.551992 333.708244,61.7573972 Z M320.544903,66.568898 L320.892188,67.5066578 C318.69279,68.3211698 316.504727,69.1369005 314.327997,69.9538498 L313.976619,69.0176162 C316.154715,68.200154 318.344143,67.3839146 320.544903,66.568898 Z M307.407302,71.4999292 L307.762885,72.4345742 C305.572165,73.2680251 303.393172,74.1027366 301.225904,74.9387089 L300.866022,74.005711 C303.034725,73.1691851 305.215152,72.3339246 307.407302,71.4999292 Z M294.357357,76.5338408 L294.721635,77.4651311 C292.534777,78.3205289 290.360122,79.1772386 288.197671,80.0352601 L287.82886,79.1057555 C289.992825,78.2471337 292.16899,77.3898288 294.357357,76.5338408 Z M281.361633,81.6903769 L281.735061,82.618036 C279.559882,83.4936522 277.397335,84.3706262 275.247419,85.2489578 L274.869221,84.323233 C277.020729,83.444251 279.184866,82.5666323 281.361633,81.6903769 Z M268.391115,86.9897612 L268.774212,87.9134695 C266.608318,88.8117474 264.455554,89.7114365 262.315921,90.6125366 L261.92779,89.6909322 C264.069104,88.7891245 266.223546,87.8887342 268.391115,86.9897612 Z M255.464981,92.4340791 L255.858299,93.3534817 C253.700637,94.2765231 251.556665,95.2010357 249.426384,96.1270192 L249.02774,95.2099136 C251.159799,94.2831573 253.305546,93.3578791 255.464981,92.4340791 Z M242.645273,98.0067011 L243.049365,98.9214195 C240.909155,99.8668923 238.783127,100.813889 236.671282,101.762409 L236.261567,100.850195 C238.375289,99.900832 240.503191,98.9530008 242.645273,98.0067011 Z M229.865908,103.747202 L230.281439,104.656781 C228.150664,105.630202 226.03473,106.605217 223.933636,107.581826 L223.512134,106.674999 C225.61522,105.697463 227.733145,104.721531 229.865908,103.747202 Z M217.15066,109.658173 L217.578343,110.562101 C215.460066,111.564339 213.357316,112.568244 211.270093,113.573815 L210.836063,112.672917 C212.925404,111.666325 215.03027,110.66141 217.15066,109.658173 Z M204.52385,115.742268 L204.964449,116.639972 C202.855007,117.675297 200.761915,118.712378 198.685172,119.751213 L198.237799,118.856866 C200.316802,117.8169 202.412153,116.7787 204.52385,115.742268 Z M192.010342,122.002204 L192.464673,122.893037 C190.37766,123.957427 188.307695,125.023647 186.254778,126.091696 L185.793244,125.204574 C187.848564,124.135274 189.92093,123.067818 192.010342,122.002204 Z M179.562466,128.47957 L180.031493,129.362753 C177.960222,130.462732 175.906908,131.564638 173.871553,132.66847 L173.39482,131.789422 C175.432746,130.684196 177.488628,129.580912 179.562466,128.47957 Z M167.249053,135.158498 L167.733767,136.03317 C165.681304,137.170578 163.647774,138.310016 161.633178,139.451484 L161.14021,138.581436 C163.157559,137.438408 165.19384,136.297429 167.249053,135.158498 Z M155.066698,142.062025 L155.568209,142.927177 C153.534313,144.106186 151.520471,145.287346 149.526686,146.470655 L149.016307,145.610705 C151.01305,144.425641 153.029847,143.242748 155.066698,142.062025 Z M143.018063,149.213861 L143.53761,150.068302 C141.531334,151.288227 139.546219,152.510419 137.582265,153.734877 L137.053202,152.886295 C139.020329,151.659858 141.008615,150.435714 143.018063,149.213861 Z M131.143454,156.61844 L131.682365,157.460803 C129.704588,158.726107 127.74924,159.993812 125.816321,161.263919 L125.267172,160.428194 C127.203503,159.155846 129.162264,157.885928 131.143454,156.61844 Z M119.424679,164.320607 L119.98448,165.149234 C118.036798,166.465044 116.113006,167.783409 114.213102,169.104331 L113.642256,168.283274 C115.545839,166.959794 117.473313,165.638906 119.424679,164.320607 Z M107.913051,172.326032 L108.49537,173.138992 C106.584585,174.507678 104.699248,175.879086 102.839359,177.253215 L102.245128,176.44892 C104.108982,175.071862 105.998289,173.697566 107.913051,172.326032 Z M96.6346776,180.661042 L97.2412945,181.456037 C95.3721154,182.882306 93.5301346,184.311481 91.7153521,185.743561 L91.095879,184.958544 C92.9149379,183.523088 94.7612042,182.090588 96.6346776,180.661042 Z M85.6487858,189.332221 L86.2815627,190.106555 C84.4619951,191.593485 82.6715109,193.083519 80.9101097,194.576657 L80.2634808,193.813853 C82.0294848,192.316813 83.8245865,190.822936 85.6487858,189.332221 Z M74.945615,198.408821 L75.606664,199.159164 C73.8420461,200.713785 72.1086913,202.27174 70.4065991,203.833029 L69.7306304,203.096099 C71.4376733,201.530269 73.1760016,199.967843 74.945615,198.408821 Z M64.625211,207.878561 L65.3165995,208.601044 C63.6171844,210.227319 61.9513976,211.857177 60.3192386,213.490617 L59.6118546,212.783787 C61.2493114,211.145046 62.9204304,209.509971 64.625211,207.878561 Z M54.7027567,217.813504 L55.4266973,218.503366 C53.8050547,220.205115 52.2195877,221.910715 50.6702955,223.620164 L49.929331,222.94862 C51.4842477,221.232965 53.0753899,219.52126 54.7027567,217.813504 Z M45.2912218,228.202859 L46.04968,228.854581 C44.5178484,230.63729 43.0250006,232.424144 41.571135,234.215142 L40.7947409,233.584895 C42.2545124,231.786621 43.7533399,229.99261 45.2912218,228.202859 Z M36.4502663,239.100231 L37.2449835,239.707211 C35.8191194,241.574091 34.4352132,243.445429 33.0932629,245.321224 L32.2799596,244.739384 C33.6280019,242.855074 35.0181049,240.975356 36.4502663,239.100231 Z M28.2730449,250.539498 L29.1052031,251.094036 C27.8033615,253.047622 26.5465863,255.005994 25.3348746,256.969153 L24.4839163,256.44392 C25.7017509,254.470841 26.9647948,252.502701 28.2730449,250.539498 Z M20.9025548,262.489725 L21.7722128,262.98338 C20.6144032,265.02306 19.5047551,267.067858 18.4432645,269.117773 L17.5552573,268.657943 C18.6226702,266.596591 19.7384373,264.540518 20.9025548,262.489725 Z M14.4488399,274.963038 L15.3546727,275.386673 C14.3623408,277.508513 13.4210793,279.635785 12.530884,281.768491 L11.6080481,281.383298 C12.5036594,279.237616 13.4505914,277.097528 14.4488399,274.963038 Z M9.04227144,287.926721 L9.98105829,288.271219 C9.17541741,290.466657 8.42332863,292.667805 7.72478784,294.874666 L6.77140848,294.572892 C7.47450293,292.351644 8.23145862,290.136252 9.04227144,287.926721 Z M4.79922418,301.346163 L5.76563224,301.603176 C5.16590848,303.858232 4.62150704,306.119208 4.13242473,308.38611 L3.15491636,308.175214 C3.64733878,305.89283 4.19544245,303.616478 4.79922418,301.346163 Z M1.83603072,315.092686 L2.82257831,315.256161 C2.44202955,317.552727 2.11765783,319.855331 1.84946168,322.16398 L0.856141897,322.048586 C1.1262067,319.723851 1.45283679,317.405216 1.83603072,315.092686 Z M0.211553197,329.052664 L1.20918306,329.121473 C1.04972019,331.433455 0.940576356,333.762001 0.881543141,336.106942 L-0.118140126,336.081775 C-0.0587418376,333.722333 0.0510839876,331.379236 0.211553197,329.052664 Z M-0.147275021,343.090013 L0.852588049,343.073465 C0.890831863,345.384209 0.976237833,347.710165 1.10860481,350.051164 L0.110199538,350.107616 C-0.0229154479,347.753389 -0.108809885,345.41413 -0.147275021,343.090013 Z M0.642516551,357.125853 L1.63804486,357.031389 C1.85668371,359.335567 2.11949369,361.653676 2.42628,363.985551 L1.43482354,364.115989 C1.12647084,361.772208 0.862301306,359.442107 0.642516551,357.125853 Z M2.4697813,371.053696 L3.45619016,370.889387 C3.83624982,373.171023 4.25726087,375.465266 4.71903704,377.771957 L3.73849219,377.968252 C3.27459914,375.650987 2.85163156,373.346082 2.4697813,371.053696 Z M5.21695779,384.803061 L6.19103164,384.576831 C6.71222093,386.820902 7.27100036,389.076248 7.86719415,391.342717 L6.90009382,391.597113 C6.30145228,389.321338 5.74034693,387.056604 5.21695779,384.803061 Z M8.78579731,398.380095 L9.74550442,398.099093 C10.3938261,400.313306 11.0769828,402.537679 11.7948061,404.772067 L10.8427313,405.077932 C10.12227,402.835333 9.43656813,400.602673 8.78579731,398.380095 Z M13.0678281,411.719618 L14.0120855,411.39041 C14.7726349,413.571868 15.5654643,415.762463 16.3904121,417.962053 L15.4540971,418.313215 C14.6264305,416.106374 13.8309529,413.908463 13.0678281,411.719618 Z M17.998347,424.872665 L18.9266353,424.500804 C19.7863285,426.646882 20.6759204,428.801151 21.5952559,430.963479 L20.6749781,431.354744 C19.7529181,429.186009 18.8606555,427.025272 17.998347,424.872665 Z M23.483098,437.779499 L24.3953958,437.369972 C25.3419321,439.478556 26.316156,441.594466 27.3179186,443.717572 L26.4135359,444.144294 C25.4090935,442.015509 24.4322309,439.893868 23.483098,437.779499 Z M29.4443827,450.420283 L30.3409756,449.977427 C31.363105,452.046801 32.4108704,454.122705 33.4841288,456.205017 L32.5952503,456.66316 C31.5193888,454.575798 30.4690517,452.494798 29.4443827,450.420283 Z M35.8724216,462.894179 L36.7536508,462.42149 C37.8470517,464.459905 38.9644035,466.504174 40.1055668,468.554177 L39.231821,469.04056 C38.0881388,466.986031 36.9682924,464.937198 35.8724216,462.894179 Z M42.6919336,475.147738 L43.558315,474.648355 C44.714405,476.65406 45.8928568,478.664988 47.0935347,480.681024 L46.2343648,481.192715 C45.0312641,479.172611 43.8504084,477.15758 42.6919336,475.147738 Z M49.8725498,487.206741 L50.7246281,486.683327 C51.9355922,488.654683 53.1674157,490.630674 54.4199664,492.611187 L53.5748053,493.145699 C52.3199341,491.161517 51.0858048,489.181827 49.8725498,487.206741 Z M57.3675617,499.059401 L58.2059232,498.514287 C59.4705585,500.459238 60.7548224,502.408315 62.058584,504.361405 L61.2268682,504.916607 C59.9208797,502.96018 58.6344005,501.007742 57.3675617,499.059401 Z M65.132959,510.69508 L65.9582066,510.130309 C67.2700662,512.047208 68.6003763,513.96775 69.9490079,515.891826 L69.1301317,516.465796 C67.779367,514.538677 66.4469331,512.615068 65.132959,510.69508 Z M73.1837458,522.182926 L73.9963969,521.600176 C75.3496005,523.487231 76.7201186,525.377473 78.107824,527.270792 L77.3012709,527.861954 C75.9115255,525.965851 74.5389746,524.072806 73.1837458,522.182926 Z M81.4883073,533.514371 L82.2888749,532.915129 C83.6778092,534.770698 85.0829644,536.629018 86.5042147,538.489985 L85.7094775,539.096939 C84.2862778,537.23342 82.8791792,535.372529 81.4883073,533.514371 Z M89.9859376,544.642219 L90.7749622,544.027858 C92.2008019,545.859064 93.641956,547.692634 95.098299,549.528464 L94.314872,550.149948 C92.8566583,548.31176 91.4136383,546.475816 89.9859376,544.642219 Z M98.6764193,555.598651 L99.4543819,554.97034 C100.912185,556.775365 102.384417,558.582382 103.870953,560.391287 L103.098363,561.026192 C101.610032,559.215103 100.136009,557.405888 98.6764193,555.598651 Z M107.565443,566.416269 L108.332766,565.775009 C109.824459,567.559946 111.329834,569.346532 112.848767,571.134664 L112.086622,571.78207 C110.56596,569.991903 109.058858,568.203268 107.565443,566.416269 Z M116.630246,577.088797 L117.387333,576.435483 C118.901665,578.190352 120.428823,579.946525 121.968681,581.703899 L121.216561,582.362926 C119.675045,580.603659 118.146231,578.845582 116.630246,577.088797 Z M125.849038,587.610397 L126.596272,586.945836 C128.142105,588.683973 129.700136,590.423102 131.270238,592.163117 L130.527812,592.833045 C128.956105,591.091251 127.396471,589.350334 125.849038,587.610397 Z M135.236425,598.014406 L135.974133,597.339286 C137.540364,599.050718 139.118056,600.762827 140.70708,602.47551 L139.974004,603.155656 C138.383434,601.441308 136.804198,599.727523 135.236425,598.014406 Z M144.774894,608.295294 L145.503385,607.610239 C147.098836,609.306853 148.705195,611.003847 150.32233,612.701116 L149.598339,613.390925 C147.979702,611.69208 146.371843,609.993501 144.774894,608.295294 Z M154.410506,618.409457 L155.130106,617.715068 C156.743757,619.387305 158.367662,621.059629 160.001691,622.731934 L159.286446,623.430808 C157.650964,621.757016 156.025607,620.083197 154.410506,618.409457 Z M164.237946,628.466977 L164.94886,627.763698 C166.582631,629.415207 168.226069,631.066515 169.87904,632.717516 L169.172355,633.425044 C167.517973,631.772634 165.873126,630.11991 164.237946,628.466977 Z M174.130397,638.348085 L174.832915,637.636419 C176.488692,639.27091 178.15361,640.904916 179.827531,642.538329 L179.129137,643.254043 C177.453841,641.619288 175.787548,639.983932 174.130397,638.348085 Z M184.148626,648.1243 L184.842954,647.404641 C186.515885,649.018687 188.197406,650.631968 189.887376,652.244376 L189.197067,652.967891 C187.505756,651.354204 185.822896,649.739638 184.148626,648.1243 Z M194.27964,657.790566 L194.96597,657.063275 C196.657301,658.659353 198.356709,660.254385 200.064051,661.848262 L199.381651,662.579241 C197.672998,660.98414 195.97228,659.387878 194.27964,657.790566 Z M204.510711,667.341957 L205.189221,666.607366 C206.899779,668.187334 208.61793,669.765974 210.343525,671.343172 L209.66887,672.081305 C207.941988,670.502932 206.222553,668.923111 204.510711,667.341957 Z M214.869915,676.810353 L215.540739,676.068736 C217.264833,677.62825 218.996001,679.186158 220.73409,680.742344 L220.067045,681.487361 C218.327695,679.930047 216.595268,678.371006 214.869915,676.810353 Z M225.30537,686.153706 L225.968657,685.405341 C227.71214,686.950613 229.462239,688.493986 231.218798,690.03534 L230.559236,690.78699 C228.801434,689.244545 227.050094,687.700078 225.30537,686.153706 Z M235.846363,695.403357 L236.50222,694.648472 C238.258594,696.174438 240.021087,697.698219 241.789537,699.219694 L241.137348,699.97775 C239.367674,698.455223 237.603959,696.930385 235.846363,695.403357 Z M246.440398,704.518098 L247.088948,703.756925 C248.862632,705.268176 250.641976,706.776938 252.426815,708.283086 L251.781896,709.047338 C249.995846,707.540166 248.215291,706.030379 246.440398,704.518098 Z M257.159822,713.563767 L257.801117,712.796473 C259.589713,714.29136 261.383496,715.78345 263.182293,717.272617 L262.544596,718.042905 C260.744598,716.552744 258.949616,715.059656 257.159822,713.563767 Z M267.952488,722.498758 L268.586597,721.725514 C270.387235,723.202153 272.192571,724.675685 274.002429,726.145984 L273.371891,726.922142 C271.560842,725.450876 269.754315,723.976371 267.952488,722.498758 Z M278.850129,731.351614 L279.477079,730.572555 C281.295618,732.036029 283.118391,733.496056 284.945216,734.952502 L284.32183,735.734416 C282.493816,734.277022 280.669854,732.816044 278.850129,731.351614 Z M289.757124,740.047755 L290.376985,739.263043 C292.208639,740.709908 294.04404,742.152986 295.882996,743.592144 L295.266694,744.379654 C293.426551,742.939567 291.589963,741.495555 289.757124,740.047755 Z M300.790645,748.682614 L301.403389,747.892333 C303.246147,749.321113 305.092144,750.745764 306.941181,752.166144 L306.331998,752.959173 C304.481772,751.53788 302.634588,750.112314 300.790645,748.682614 Z M311.897566,757.214634 L312.503179,756.418874 C314.358103,757.830565 316.215752,759.237758 318.07592,760.64031 L317.473882,761.438778 C315.612521,760.035326 313.75368,758.62723 311.897566,757.214634 Z M323.11,765.668434 L323.708425,764.867255 C325.57806,766.263742 327.449896,767.655331 329.323718,769.041874 L328.728898,769.845733 C326.853873,768.4583 324.980835,767.065818 323.11,765.668434 Z M334.330862,773.971584 L334.92208,773.165073 C336.803123,774.543984 338.685821,775.917592 340.569947,777.285746 L339.982371,778.094915 C338.097029,776.725878 336.213117,775.351384 334.330862,773.971584 Z M345.677609,782.21078 L346.261502,781.398949 C348.157785,782.762813 350.055155,784.12092 351.953376,785.473114 L351.373183,786.287593 C349.473727,784.934519 347.575124,783.575529 345.677609,782.21078 Z M357.052354,790.31373 L357.628838,789.496622 C359.537367,790.843121 361.446384,792.1834 363.355643,793.517298 L362.782926,794.337051 C360.872409,793.002274 358.962137,791.661114 357.052354,790.31373 Z M368.571171,798.360946 L369.140056,797.538529 C371.061706,798.86778 372.983209,800.190305 374.904309,801.505938 L374.339274,802.331006 C372.416889,801.014492 370.494102,799.691083 368.571171,798.360946 Z M380.092297,806.251107 L380.653454,805.423398 C382.587511,806.734617 384.520752,808.038577 386.452907,809.335104 L385.895703,810.16548 C383.962227,808.868066 382.027669,807.563218 380.092297,806.251107 Z M391.729643,814.059835 L392.282827,813.226776 C394.230255,814.519945 396.176149,815.805268 398.120225,817.082566 L397.571118,817.918318 C395.62568,816.640125 393.678427,815.353904 391.729643,814.059835 Z M403.425225,821.743927 L403.970187,820.905466 C405.931879,822.18048 407.891263,823.447005 409.84804,824.704857 L409.307305,825.54605 C407.349115,824.28729 405.388322,823.019854 403.425225,821.743927 Z M415.204663,829.315756 L415.741087,828.471807 C417.716526,829.727419 419.68882,830.973847 421.657654,832.210899 L421.125637,833.057632 C419.15533,831.819655 417.181567,830.572299 415.204663,829.315756 Z M427.091113,836.783746 L427.618603,835.934185 C429.608401,837.169643 431.594138,838.395147 433.575479,839.610497 L433.05261,840.462911 C431.069724,839.246612 429.082447,838.020158 427.091113,836.783746 Z M439.022819,844.102377 L439.540954,843.247078 C441.545072,844.461161 443.544124,845.664444 445.537757,846.85672 L445.024498,847.714954 C443.029233,846.521702 441.028556,845.317441 439.022819,844.102377 Z M451.059572,851.300353 L451.567799,850.43913 C453.58637,851.630336 455.598761,852.8098 457.604599,853.97731 L457.101552,854.841569 C455.09398,853.67305 453.079862,852.492573 451.059572,851.300353 Z M463.135683,858.329076 L463.6334,857.461737 C465.667771,858.629148 467.694716,859.783754 469.713837,860.925333 L469.22167,861.795834 C467.20069,860.653204 465.171896,859.497544 463.135683,858.329076 Z M475.342508,865.229923 L475.8289,864.356182 C477.879413,865.497658 479.921088,866.625124 481.953503,867.738349 L481.473109,868.615403 C479.438685,867.501076 477.39501,866.372506 475.342508,865.229923 Z M487.645414,871.967771 L488.119528,871.087307 C490.187407,872.200821 492.244831,873.29894 494.291346,874.38142 L493.823785,875.265381 C491.775074,874.181739 489.715465,873.082455 487.645414,871.967771 Z M500.006339,878.505251 L500.467045,877.617698 C502.553569,878.700761 504.627766,879.766818 506.689148,880.815616 L506.235682,881.706889 C504.171872,880.656856 502.095261,879.589558 500.006339,878.505251 Z M512.480536,884.858204 L512.935777,883.967835 C515.096106,885.072401 517.150107,886.195257 519.098564,887.336485 L518.593165,888.199371 C516.661448,887.067947 514.624163,885.95423 512.480536,884.858204 Z M524.489566,891.931333 L525.055438,891.10684 C527.073085,892.491606 528.947051,893.901915 530.678545,895.337958 L530.040164,896.107679 C528.332475,894.691379 526.482698,893.299274 524.489566,891.931333 Z M535.156374,900.864036 L535.88115,900.175051 C537.576606,901.958579 539.070863,903.7794 540.365735,905.63784 L539.545253,906.209512 C538.279846,904.393361 536.817649,902.611607 535.156374,900.864036 Z M542.958266,912.211821 L543.871554,911.804508 C544.854959,914.00952 545.583006,916.263024 546.058263,918.565045 L545.078916,918.767233 C544.618289,916.536078 543.912454,914.351322 542.958266,912.211821 Z M545.728329,925.596809 L546.728265,925.608156 C546.702073,927.916385 546.444201,930.268743 545.957333,932.665728 L544.977344,932.466676 C545.451873,930.130441 545.702866,927.840833 545.728329,925.596809 Z M543.056271,939.15737 L543.994798,939.502574 C543.213846,941.6258 542.266892,943.782441 541.155334,945.973284 L540.26355,945.520823 C541.357842,943.36401 542.289125,941.243061 543.056271,939.15737 Z M536.808408,951.599995 L537.655518,952.131412 C536.453624,954.047304 535.1336,955.988725 533.696065,957.956328 L532.88861,957.366399 C534.312524,955.41744 535.619316,953.495479 536.808408,951.599995 Z M528.594443,962.896398 L529.367282,963.531 C527.929577,965.281881 526.40359,967.05314 524.789558,968.845316 L524.046485,968.176106 C525.650511,966.39504 527.166577,964.635297 528.594443,962.896398 Z M519.319861,973.225048 L520.037355,973.921612 C518.453628,975.552927 516.800103,977.201369 515.076807,978.867424 L514.381741,978.148478 C516.097559,976.489654 517.743609,974.848662 519.319861,973.225048 Z M509.295021,982.93191 L509.970456,983.66933 C508.284327,985.213729 506.540506,986.773156 504.738871,988.348072 L504.080725,987.595182 C505.876615,986.025287 507.614676,984.471012 509.295021,982.93191 Z M498.770956,992.141268 L499.413828,992.907242 C497.662401,994.377193 495.86226,995.860606 494.013174,997.357934 L493.383862,996.580781 C495.228451,995.087095 497.024073,993.607406 498.770956,992.141268 Z M487.90514,1000.94578 L488.522297,1001.73262 C486.718092,1003.14774 484.871405,1004.57533 482.981901,1006.01583 L482.375623,1005.22058 C484.261522,1003.78282 486.104584,1002.35804 487.90514,1000.94578 Z M476.788289,1009.42524 L477.384764,1010.22788 C475.53713,1011.60094 473.651523,1012.98583 471.727506,1014.38302 L471.13991,1013.57386 C473.060987,1012.17881 474.943635,1010.7961 476.788289,1009.42524 Z M465.437561,1017.67101 L466.017097,1018.48596 C464.146435,1019.81625 462.241631,1021.15783 460.302145,1022.51122 L459.72989,1021.69114 C461.666966,1020.33944 463.569344,1018.99956 465.437561,1017.67101 Z M453.988922,1025.66236 L454.554547,1026.48703 C452.65883,1027.78727 450.731568,1029.0986 448.772093,1030.42159 L448.212521,1029.59281 C450.169993,1028.27118 452.095238,1026.96122 453.988922,1025.66236 Z M442.377792,1033.50347 L442.931807,1034.33597 C441.014445,1035.61194 439.067397,1036.89898 437.089841,1038.19776 L436.540886,1037.36191 C438.516769,1036.06423 440.46213,1034.7783 442.377792,1033.50347 Z M430.641746,1041.21243 L431.186043,1042.05132 C429.258106,1043.30222 427.301952,1044.56432 425.31657,1045.83836 L424.776494,1044.99675 C426.760481,1043.7236 428.715228,1042.46241 430.641746,1041.21243 Z M418.85303,1048.77835 L419.389219,1049.62245 C417.440754,1050.86016 415.464578,1052.10954 413.459402,1053.37151 L412.926756,1052.52517 C414.930762,1051.26394 416.905757,1050.0153 418.85303,1048.77835 Z M407.026318,1056.22279 L407.555751,1057.07115 C405.605126,1058.28848 403.627148,1059.51803 401.620176,1060.7609 L401.093681,1059.91073 C403.099682,1058.66846 405.076682,1057.43951 407.026318,1056.22279 Z M395.113433,1063.6009 L395.637242,1064.45273 C393.672668,1065.66079 391.680009,1066.88211 389.657067,1068.11812 L389.135687,1067.2648 C391.157827,1066.02927 393.149677,1064.80845 395.113433,1063.6009 Z M383.158326,1070.90626 L383.677516,1071.76091 C381.716345,1072.95229 379.725906,1074.15824 377.703193,1075.38066 L377.185965,1074.52481 C379.208032,1073.30279 381.197817,1072.09723 383.158326,1070.90626 Z M371.148099,1078.16509 L371.663558,1079.02201 C369.694062,1080.20671 367.692406,1081.40822 365.654114,1082.62927 L365.140213,1081.77142 C367.177993,1080.55067 369.179131,1079.34948 371.148099,1078.16509 Z M359.172372,1085.33995 L359.684918,1086.19861 C357.71553,1087.37417 355.709178,1088.56984 353.658615,1089.79002 L353.147254,1088.93065 C355.197428,1087.71071 357.203387,1086.51527 359.172372,1085.33995 Z M347.211117,1092.45815 L347.721485,1093.3181 C345.76283,1094.48053 343.758791,1095.6685 341.695832,1096.89012 L341.186301,1096.02966 C343.248988,1094.80821 345.252748,1093.6204 347.211117,1092.45815 Z M335.184025,1099.58072 L335.692885,1100.44157 C333.754869,1101.58716 331.754442,1102.76878 329.657006,1104.00692 L329.148658,1103.14577 C331.24593,1101.90772 333.246187,1100.72621 335.184025,1099.58072 Z M323.117234,1106.70438 L323.625227,1107.56574 C321.7768,1108.65586 319.840769,1109.79728 317.59732,1111.11966 L317.089529,1110.25818 C319.332916,1108.93584 321.268882,1107.79446 323.117234,1106.70438 Z M311.092257,1113.79286 L311.599997,1114.65437 C308.977426,1116.20001 307.304797,1117.18587 305.569955,1118.20859 L305.062116,1117.34714 C306.796999,1116.3244 308.469655,1115.33852 311.092257,1113.79286 Z M299.021917,1120.90897 L299.530002,1121.77028 C297.41295,1123.01912 295.417611,1124.19673 293.490595,1125.33467 L292.982116,1124.47359 C294.90927,1123.33558 296.904739,1122.15789 299.021917,1120.90897 Z M286.92986,1128.05001 L287.438881,1128.91076 C285.372169,1130.13295 283.368481,1131.31888 281.410782,1132.47872 L280.901072,1131.61837 C282.859008,1130.4584 284.862924,1129.27232 286.92986,1128.05001 Z M274.895918,1135.17992 L275.406461,1136.03977 C273.358444,1137.25579 271.353824,1138.44754 269.384343,1139.61998 L268.872816,1138.76072 C270.842632,1137.58807 272.84758,1136.39613 274.895918,1135.17992 Z M262.887193,1142.32921 L263.399848,1143.1878 C261.361292,1144.405 259.356774,1145.60385 257.381453,1146.78732 L256.867508,1145.9295 C258.843265,1144.74577 260.848213,1143.54666 262.887193,1142.32921 Z M250.871252,1149.52874 L251.386638,1150.3857 C249.362367,1151.60312 247.366707,1152.80581 245.396531,1153.99572 L244.879545,1153.13973 C246.85026,1151.94949 248.846453,1150.74648 250.871252,1149.52874 Z M238.872581,1156.77605 L239.391338,1157.63097 C237.372518,1158.85596 235.37925,1160.06848 233.409341,1161.2699 L232.888651,1160.41616 C234.859211,1159.21433 236.853124,1158.00143 238.872581,1156.77605 Z M226.916327,1164.06859 L227.439123,1164.92104 C225.426962,1166.15506 223.438496,1167.37816 221.472118,1168.59138 L220.947034,1167.74033 C222.914181,1166.52663 224.90341,1165.30307 226.916327,1164.06859 Z M214.9741,1171.43741 L215.501664,1172.28693 C213.499169,1173.53051 211.519261,1174.76431 209.560725,1175.98914 L209.030494,1175.14128 C210.989926,1173.91589 212.970723,1172.68154 214.9741,1171.43741 Z M203.128093,1178.84621 L203.661179,1179.69227 C201.665522,1180.94969 199.692002,1182.19812 197.739672,1183.43822 L197.203502,1182.59411 C199.156868,1181.35335 201.131416,1180.10427 203.128093,1178.84621 Z M191.300658,1186.35958 L191.84013,1187.20158 C189.857899,1188.4716 187.897676,1189.73324 185.958715,1190.98707 L185.415707,1190.14734 C187.355855,1188.89275 189.317256,1187.63034 191.300658,1186.35958 Z M179.526001,1193.97462 L180.072807,1194.81188 C178.099974,1196.10032 176.149512,1197.38079 174.220821,1198.65377 L173.669964,1197.81917 C175.600015,1196.54529 177.551826,1195.26393 179.526001,1193.97462 Z M167.840595,1201.68821 L168.395777,1202.51994 C166.437164,1203.82732 164.501547,1205.12703 162.588443,1206.4195 L162.028636,1205.59088 C163.943291,1204.29736 165.880449,1202.99661 167.840595,1201.68821 Z M156.234088,1209.5306 L156.798842,1210.35586 C154.85689,1211.68481 152.938872,1213.00629 151.0444,1214.32066 L150.474365,1213.49904 C152.370607,1212.18344 154.290384,1210.86075 156.234088,1209.5306 Z M144.704293,1217.53163 L145.280012,1218.34928 C143.351606,1219.7071 141.448558,1221.0575 139.570555,1222.4008 L138.98878,1221.58745 C140.868813,1220.2427 142.773878,1218.89087 144.704293,1217.53163 Z M133.304992,1225.68698 L133.893252,1226.49566 C131.985284,1227.88359 130.104374,1229.26408 128.250278,1230.63742 L127.655067,1229.83385 C129.511492,1228.45878 131.394717,1227.07659 133.304992,1225.68698 Z M122.050271,1234.02535 L122.652929,1234.82334 C120.769382,1236.24582 118.915023,1237.66074 117.089667,1239.06837 L116.478999,1238.27648 C118.307038,1236.86678 120.164065,1235.44983 122.050271,1234.02535 Z M110.967002,1242.57451 L111.586261,1243.3597 C109.731285,1244.82268 107.908171,1246.27787 106.116787,1247.72553 L105.488246,1246.94776 C107.282736,1245.49758 109.108943,1244.03992 110.967002,1242.57451 Z M100.057134,1251.39442 L100.695704,1252.16398 C98.8774424,1253.67274 97.0943134,1255.17338 95.34624,1256.66614 L94.6968503,1255.90569 C96.4485414,1254.40983 98.2352764,1252.90616 100.057134,1251.39442 Z M89.3879163,1260.51001 L90.0490598,1261.26027 C88.2734319,1262.82498 86.537151,1264.38108 84.8401976,1265.92879 L84.1663277,1265.18994 C85.8675316,1263.63835 87.6080538,1262.07846 89.3879163,1260.51001 Z M79.0144166,1269.9774 L79.7021658,1270.70335 C77.9833247,1272.33175 76.3090537,1273.95086 74.679397,1275.56092 L73.9765801,1274.84955 C75.6112603,1273.23453 77.290553,1271.61056 79.0144166,1269.9774 Z M69.0622255,1279.81718 L69.7814339,1280.51198 C68.1338834,1282.21742 66.5376888,1283.91267 64.9929689,1285.59795 L64.2557883,1284.92226 C65.8064824,1283.23046 67.4086671,1281.52885 69.0622255,1279.81718 Z M59.5778233,1290.17724 L60.3347327,1290.83076 C58.7827565,1292.62826 57.2910206,1294.41434 55.8597373,1296.18922 L55.081309,1295.56149 C56.5197079,1293.77778 58.018617,1291.98312 59.5778233,1290.17724 Z M50.7584741,1301.1338 L51.5605309,1301.73105 C50.1393371,1303.6396 48.7902654,1305.53504 47.5136509,1307.4176 L46.6860044,1306.85635 C47.9709952,1304.96144 49.3285999,1303.05401 50.7584741,1301.1338 Z M42.895762,1312.75635 L43.7509435,1313.27468 C42.516428,1315.31148 41.3697001,1317.33294 40.3112583,1319.33929 L39.4267887,1318.8727 C40.4946132,1316.84856 41.6511147,1314.80987 42.895762,1312.75635 Z M36.3434625,1325.23176 L37.258299,1325.63559 C36.2978954,1327.81131 35.4453859,1329.96887 34.7014816,1332.10851 L33.7569413,1331.78011 C34.5098527,1329.61457 35.3722925,1327.43188 36.3434625,1325.23176 Z M31.756842,1338.51119 L32.727979,1338.74971 C32.1641305,1341.04541 31.7306938,1343.31998 31.4286367,1345.57374 L30.4374987,1345.4409 C30.7443792,1343.15116 31.1845334,1340.84133 31.756842,1338.51119 Z M29.9144333,1352.47047 L30.914342,1352.48399 C30.882831,1354.81565 30.9985491,1357.12462 31.2627283,1359.41128 L30.2693359,1359.52605 C30.0002115,1357.19659 29.8823462,1354.84477 29.9144333,1352.47047 Z M31.5268794,1366.42769 L32.4969352,1366.18481 C33.0484744,1368.38762 33.7445262,1370.56943 34.5863357,1372.7304 C34.6053086,1372.77907 34.6053086,1372.77907 34.6185708,1372.81308 L33.6869221,1373.17644 C33.6736261,1373.14235 33.6736261,1373.14235 33.6545799,1373.09349 C32.7975143,1370.89335 32.0886677,1368.67144 31.5268794,1366.42769 Z M36.2714907,1379.68498 L37.1986246,1379.31025 C38.0706353,1381.46772 38.9584068,1383.62661 39.8619391,1385.78691 L38.9393796,1386.17276 C38.0343026,1384.00877 37.1450062,1381.84617 36.2714907,1379.68498 Z M41.6764722,1392.60998 L42.594426,1392.2133 C43.5170434,1394.34828 44.4550147,1396.48464 45.4083401,1398.62237 L44.49504,1399.02966 C43.5401455,1396.88841 42.6006228,1394.74851 41.6764722,1392.60998 Z M47.384575,1405.41125 L48.2931946,1404.99362 C49.2648484,1407.10763 50.2514792,1409.22299 51.253087,1411.33969 L50.3491776,1411.76741 C49.3459835,1409.64736 48.3577826,1407.52864 47.384575,1405.41125 Z M53.3727791,1418.06793 L54.2719766,1417.63039 C55.2881888,1419.71881 56.3189441,1421.80854 57.3642426,1423.89957 L56.4697782,1424.34671 C55.4228874,1422.25249 54.3905544,1420.15957 53.3727791,1418.06793 Z M59.6362614,1430.59842 L60.5259803,1430.14191 C61.5875305,1432.21084 62.6632828,1434.28103 63.7532373,1436.3525 L62.8682677,1436.81815 C61.776717,1434.74365 60.6993816,1432.67041 59.6362614,1430.59842 Z M66.1619173,1443.00158 L67.0421416,1442.52702 C68.1440562,1444.57088 69.2597634,1446.61598 70.3892631,1448.66232 L69.5137735,1449.14556 C68.3826838,1447.09634 67.2653984,1445.04835 66.1619173,1443.00158 Z M72.9368088,1455.27626 L73.8075581,1454.78453 C74.9500652,1456.80768 76.1060216,1458.83203 77.2754276,1460.85759 L76.4093928,1461.35758 C75.2384048,1459.32928 74.0808768,1457.30217 72.9368088,1455.27626 Z M79.936465,1467.40151 L80.7978053,1466.89349 C81.9779876,1468.89443 83.1712637,1470.89656 84.3776335,1472.89985 L83.5209704,1473.41573 C82.3130322,1471.40983 81.118197,1469.40509 79.936465,1467.40151 Z M87.1711624,1479.41587 L88.023156,1478.89231 C89.2403522,1480.8731 90.4703198,1482.85502 91.7130587,1484.83809 L90.8656985,1485.36911 C89.6214067,1483.38356 88.3898947,1481.39915 87.1711624,1479.41587 Z M94.6045597,1491.27851 L95.4473226,1490.74022 C96.6976127,1492.69773 97.9603187,1494.65636 99.2354406,1496.61609 L98.3972501,1497.16147 C97.1205966,1495.19938 95.8563665,1493.23839 94.6045597,1491.27851 Z M102.249335,1503.02818 L103.082972,1502.47587 C104.367074,1504.41403 105.663292,1506.35329 106.971627,1508.29362 L106.142502,1508.85269 C104.832657,1506.91011 103.534934,1504.96861 102.249335,1503.02818 Z M110.081166,1514.64393 L110.905814,1514.07829 C112.220917,1515.99555 113.547823,1517.91388 114.886534,1519.83326 L114.066328,1520.40533 C112.726131,1518.48382 111.397743,1516.56335 110.081166,1514.64393 Z M118.10233,1526.14478 L118.918124,1525.56644 C120.262922,1527.46337 121.619224,1529.36134 122.987031,1531.26033 L122.175604,1531.84478 C120.806336,1529.94376 119.448578,1528.04376 118.10233,1526.14478 Z M126.287801,1537.50972 L127.094903,1536.91931 C128.466881,1538.79483 129.850056,1540.67134 131.244429,1542.54886 L130.441612,1543.14509 C129.045806,1541.26564 127.661202,1539.38718 126.287801,1537.50972 Z M134.625947,1548.73774 L135.424528,1548.13585 C136.82442,1549.99322 138.235248,1551.85157 139.657011,1553.7109 L138.862637,1554.31833 C137.439467,1552.45716 136.027237,1550.59696 134.625947,1548.73774 Z M143.13661,1559.86818 L143.926818,1559.25535 C145.350762,1561.09141 146.785346,1562.92843 148.230572,1564.76641 L147.444483,1565.38452 C145.99788,1563.5448 144.561922,1561.70602 143.13661,1559.86818 Z M151.795162,1570.8801 L152.577167,1570.25683 C154.025623,1572.07417 155.484462,1573.89245 156.953683,1575.71165 L156.175714,1576.33995 C154.705144,1574.51908 153.24496,1572.69913 151.795162,1570.8801 Z M160.591805,1581.77262 L161.365781,1581.1394 C162.837873,1582.93873 164.320101,1584.73897 165.812466,1586.54012 L165.042441,1587.17813 C163.548757,1585.37539 162.065211,1583.57355 160.591805,1581.77262 Z M169.533904,1592.5652 L170.300012,1591.92248 C171.794364,1593.70375 173.298609,1595.48589 174.812748,1597.26892 L174.050505,1597.91621 C172.535075,1596.13166 171.029541,1594.34799 169.533904,1592.5652 Z M178.595776,1603.23677 L179.354197,1602.58501 C180.869573,1604.34837 182.394607,1606.11259 183.929298,1607.87767 L183.174657,1608.53381 C181.638704,1606.76727 180.11241,1605.00159 178.595776,1603.23677 Z M187.785913,1613.8069 L188.536813,1613.14649 C190.072712,1614.89282 191.618046,1616.64 193.172814,1618.38802 L192.425611,1619.05262 C190.869608,1617.30321 189.323042,1615.55464 187.785913,1613.8069 Z M197.09632,1624.27488 L197.839866,1623.6062 C199.394539,1625.33492 200.958422,1627.06447 202.531515,1628.79485 L201.791581,1629.46752 C200.217282,1627.73583 198.652195,1626.00495 197.09632,1624.27488 Z M206.519093,1634.64002 L207.255453,1633.96343 C208.828913,1635.67589 210.411376,1637.38915 212.002842,1639.10322 L211.270012,1639.78364 C209.677368,1638.0683 208.093728,1636.35376 206.519093,1634.64002 Z M216.046423,1644.90163 L216.775763,1644.21748 C218.367416,1645.91426 219.967874,1647.61183 221.577138,1649.31019 L220.851248,1649.998 C219.240832,1648.29843 217.639224,1646.59964 216.046423,1644.90163 Z M225.690245,1655.07956 L226.412719,1654.38817 C228.020672,1656.06839 229.637227,1657.74938 231.262386,1659.43114 L230.543281,1660.12604 C228.916998,1658.44312 227.29932,1656.76096 225.690245,1655.07956 Z M235.424119,1665.15269 L236.139891,1664.45436 C237.764141,1666.11917 239.396807,1667.78473 241.037887,1669.45104 L240.325407,1670.15274 C238.683228,1668.48531 237.049465,1666.81863 235.424119,1665.15269 Z M245.240495,1675.12035 L245.949729,1674.41538 C247.589629,1676.06519 249.237763,1677.71573 250.894132,1679.36702 L250.188113,1680.07521 C248.530672,1678.42286 246.881466,1676.77124 245.240495,1675.12035 Z M255.173717,1685.02317 L255.876548,1684.31182 C257.531531,1685.94696 259.194573,1687.58283 260.865676,1689.21942 L260.165986,1689.93387 C258.493835,1688.29625 256.829746,1686.65935 255.173717,1685.02317 Z M265.176242,1694.81936 L265.872831,1694.10189 C267.541929,1695.72241 269.218916,1697.34363 270.903791,1698.96556 L270.210271,1699.68599 C268.524372,1698.06308 266.846363,1696.44087 265.176242,1694.81936 Z" id="Path-6"></path>
            </g>
        </g>
    </g>
</svg>