<?xml version="1.0" encoding="UTF-8"?>
<svg width="59px" height="16px" viewBox="0 0 59 16" version="1.1" xmlns="http://www.w3.org/2000/svg" xmlns:xlink="http://www.w3.org/1999/xlink">
    <!-- Generator: Sketch 51.1 (57501) - http://www.bohemiancoding.com/sketch -->
    <title>Group 8</title>
    <desc>Created with Sketch.</desc>
    <defs></defs>
    <g id="Landing-page" stroke="none" stroke-width="1" fill="none" fill-rule="evenodd">
        <g id="m---stage-full-" transform="translate(-316.000000, -1413.000000)">
            <g id="Group-8" transform="translate(316.000000, 1413.000000)">
                <path d="M8,8.5 L8,7.5 L13,7.5 L13,8.5 L8,8.5 Z M18,8.5 L18,7.5 L23,7.5 L23,8.5 L18,8.5 Z M28,8.5 L28,7.5 L33,7.5 L33,8.5 L28,8.5 Z M38,8.5 L38,7.5 L43,7.5 L43,8.5 L38,8.5 Z M48,8.5 L48,7.5 L53,7.5 L53,8.5 L48,8.5 Z M58,8.5 L58,7.5 L63,7.5 L63,8.5 L58,8.5 Z M68,8.5 L68,7.5 L73,7.5 L73,8.5 L68,8.5 Z" id="Path-7" fill-opacity="0.1" fill="#262626" fill-rule="nonzero"></path>
                <g id="Group-4" transform="translate(8.000000, 8.000000) rotate(-270.000000) translate(-8.000000, -8.000000) ">
                    <circle id="Oval-Copy" fill="#FFCC4D" cx="8" cy="8" r="8"></circle>
                    <circle id="Oval" fill="#FFFFFF" cx="8" cy="8" r="5"></circle>
                </g>
            </g>
        </g>
    </g>
</svg>