<?xml version="1.0" encoding="UTF-8"?>
<svg width="20px" height="14px" viewBox="0 0 20 14" version="1.1" xmlns="http://www.w3.org/2000/svg" xmlns:xlink="http://www.w3.org/1999/xlink">
    <!-- Generator: Sketch 51.1 (57501) - http://www.bohemiancoding.com/sketch -->
    <title>Youtube Copy 2-black</title>
    <desc>Created with Sketch.</desc>
    <defs></defs>
    <g id="Landing-page" stroke="none" stroke-width="1" fill="none" fill-rule="evenodd">
        <g id="Stage-1" transform="translate(-1194.000000, -59.000000)" fill="#262626">
            <path d="M1201.935,68.5817301 L1201.93438,62.9890701 L1207.33812,65.7950415 L1201.935,68.5817301 Z M1213.8,62.0199493 C1213.8,62.0199493 1213.60437,60.6483761 1213.005,60.0443862 C1212.24437,59.2512996 1211.39188,59.2475674 1211.00125,59.2015373 C1208.2025,59 1204.00437,59 1204.00437,59 L1203.99563,59 C1203.99563,59 1199.7975,59 1196.99875,59.2015373 C1196.6075,59.2475674 1195.75563,59.2512996 1194.99437,60.0443862 C1194.395,60.6483761 1194.2,62.0199493 1194.2,62.0199493 C1194.2,62.0199493 1194,63.6310037 1194,65.241436 L1194,66.7517217 C1194,68.362776 1194.2,69.9732083 1194.2,69.9732083 C1194.2,69.9732083 1194.395,71.3447816 1194.99437,71.9487715 C1195.75563,72.7418581 1196.755,72.7169769 1197.2,72.7997068 C1198.8,72.9527258 1204,73 1204,73 C1204,73 1208.2025,72.9937797 1211.00125,72.7922424 C1211.39188,72.7455903 1212.24437,72.7418581 1213.005,71.9487715 C1213.60437,71.3447816 1213.8,69.9732083 1213.8,69.9732083 C1213.8,69.9732083 1214,68.362776 1214,66.7517217 L1214,65.241436 C1214,63.6310037 1213.8,62.0199493 1213.8,62.0199493 L1213.8,62.0199493 Z" id="Youtube-Copy-2"></path>
        </g>
    </g>
</svg>